<svg width="65" height="25" viewBox="0 0 65 25" fill="none" xmlns="http://www.w3.org/2000/svg">
<path d="M0.452514 12.398C0.537062 12.3453 64.7674 11.8495 64.847 11.9335C64.9267 12.0175 65.1473 23.8373 64.847 24.0109C64.5468 24.1844 0.228341 24.8413 0.0408168 24.5953C-0.146707 24.3493 0.367966 12.4508 0.452514 12.398Z" fill="#ED253F"/>
<path d="M54.8022 22.7326C54.8482 22.8575 58.3981 24.5966 59.6354 24.5966C62.7201 24.5966 64.815 23.046 64.815 20.4397C64.815 18.2128 63.1819 17.4211 61.4331 16.9757C60.5753 16.7612 59.8165 16.6789 59.8165 16.0354C59.8165 15.5241 60.3609 15.3591 60.8887 15.3591C61.6145 15.3591 62.8805 16.0927 63.0166 16.0519C63.1528 16.0111 64.4312 13.7057 64.3528 13.5116C64.2744 13.3174 62.5218 12.3569 60.1629 12.3569C56.8803 12.3569 55.4287 14.3363 55.4287 16.3818C55.4287 18.9386 57.87 19.5159 58.8433 19.7798C59.668 19.9943 60.41 20.1594 60.41 20.8191C60.41 21.0995 60.245 21.4789 59.4368 21.4789C58.4306 21.4789 56.7175 20.1366 56.5501 20.1592C56.3827 20.1819 54.7565 22.6075 54.8022 22.7326Z" fill="white" fill-opacity="0.99"/>
<path d="M43.0309 12.7034C42.9152 12.8587 43.0309 19.3675 43.0309 19.3675C43.0309 20.6707 43.3443 24.5966 48.9198 24.5966C54.4953 24.5966 54.8087 20.6707 54.8087 19.3675C54.8087 19.3675 54.903 12.8095 54.8087 12.7034C54.7144 12.5972 50.3329 12.5684 50.1899 12.7034C50.047 12.8384 50.1899 19.516 50.1899 19.516C50.1899 20.0768 50.091 21.2484 48.92 21.2484C47.749 21.2484 47.6501 20.0772 47.6501 19.516C47.6501 19.516 47.7752 12.8386 47.6501 12.7034C47.5249 12.5682 43.1466 12.548 43.0309 12.7034Z" fill="white" fill-opacity="0.99"/>
<path d="M35.3035 24.2502C35.3814 24.3865 39.8242 24.3864 39.9222 24.2502C40.0202 24.114 39.8789 16.1591 39.9222 16.052C39.9655 15.9448 42.2754 16.1299 42.3471 16.052C42.4188 15.974 42.4496 12.7704 42.3471 12.7034C42.2445 12.6364 33.0399 12.6275 32.8786 12.7034C32.7174 12.7793 32.7913 15.9297 32.8786 16.052C32.966 16.1743 35.3035 16.052 35.3035 16.052C35.3035 16.052 35.2256 24.1139 35.3035 24.2502Z" fill="white" fill-opacity="0.99"/>
<path d="M32.1963 19.8459C32.0974 19.8387 30.6457 20.9019 29.623 20.9019C28.4353 20.9019 27.0662 20.3246 27.0662 18.5925C27.0662 17.5365 27.5775 16.0522 29.6395 16.0522C30.4477 16.0522 32.1086 17.3114 32.1963 17.2729C32.2839 17.2344 32.2495 13.3637 32.1963 13.2315C32.143 13.0993 29.9694 12.3572 29.0291 12.3572C26.0929 12.3572 22.6619 14.2872 22.6619 18.4771C22.6619 22.1721 25.3341 24.5969 29.0951 24.5969C30.4807 24.5969 32.1353 23.9703 32.1963 23.8876C32.2572 23.8048 32.2951 19.8532 32.1963 19.8459Z" fill="white" fill-opacity="0.99"/>
<path d="M10.414 24.2502C10.4752 24.3952 15.0464 24.3567 15.1482 24.2502C15.2501 24.1437 15.5255 22.6375 15.6101 22.5677C15.6947 22.4978 18.383 22.4443 18.5133 22.5677C18.6436 22.691 18.8507 24.1827 18.9752 24.2502C19.0997 24.3177 23.6166 24.4297 23.7094 24.2502C23.8021 24.0708 19.7235 12.7983 19.602 12.7034C19.4805 12.6084 14.6478 12.5949 14.5214 12.7034C14.395 12.8118 10.3529 24.1053 10.414 24.2502ZM17.0617 16.7448C17.1743 16.7562 17.9479 19.6383 17.87 19.681C17.7921 19.7236 16.3146 19.8042 16.2534 19.681C16.1922 19.5578 16.9491 16.7334 17.0617 16.7448Z" fill="white" fill-opacity="0.99"/>
<path d="M9.96251 19.8459C9.83344 19.8209 8.41193 20.9019 7.38921 20.9019C6.20154 20.9019 4.83241 20.3246 4.83241 18.5925C4.83241 17.5365 5.34377 16.0522 7.40571 16.0522C8.21399 16.0522 9.85822 17.3242 9.96251 17.2729C10.0668 17.2215 10.1148 13.4301 9.96251 13.2315C9.81025 13.0329 7.73562 12.357 6.79524 12.357C3.85904 12.357 0.427979 14.2869 0.427979 18.4768C0.427979 22.1718 3.10025 24.5966 6.86122 24.5966C8.24684 24.5966 9.88114 24.0207 9.96237 23.8873C10.0436 23.7539 10.0916 19.8709 9.96251 19.8459Z" fill="white" fill-opacity="0.99"/>
<path d="M1.77028 16.0078C1.79182 15.9759 1.21976 15.2929 1.1838 15.2887C1.14784 15.2846 0.669391 15.9406 0.69353 15.9685C0.717669 15.9964 1.74868 16.0397 1.77028 16.0078Z" fill="#ED253F"/>
<path d="M5.31576 15.8581C5.28176 15.8821 5.74766 16.828 5.78821 16.8473C5.82876 16.8665 6.57287 16.3927 6.55298 16.3539C6.53309 16.315 5.35025 15.8346 5.31576 15.8581Z" fill="#ED253F"/>
<path d="M3.08593 22.1513C3.05007 22.107 1.88357 22.4226 1.86415 22.4641C1.84474 22.5056 2.56852 23.461 2.6162 23.4472C2.66387 23.4334 3.12137 22.1963 3.08593 22.1513Z" fill="#ED253F"/>
<path d="M9.84831 20.7666C9.7971 20.735 8.74662 21.4271 8.74173 21.4744C8.73684 21.5216 9.79114 22.2171 9.834 22.1879C9.87686 22.1587 9.89949 20.7983 9.84831 20.7666Z" fill="#ED253F"/>
<path d="M10.1355 14.3074C10.1766 14.3066 9.67309 12.9357 9.62668 12.8845C9.58026 12.8333 8.68555 12.8037 8.70704 12.8606C8.72854 12.9174 10.0941 14.3079 10.1355 14.3074Z" fill="#ED253F"/>
<path d="M15.1972 23.2703C15.1358 23.243 14.0556 23.5563 14.0562 23.5866C14.0568 23.6169 15.3265 24.2131 15.3704 24.1997C15.4143 24.1863 15.2584 23.2981 15.1972 23.2703Z" fill="#ED253F"/>
<path d="M39.7256 17.1064C39.6732 17.0742 38.5981 17.7824 38.5931 17.8306C38.5881 17.8789 39.6671 18.5907 39.7109 18.5608C39.7547 18.5308 39.7779 17.1388 39.7256 17.1064Z" fill="#ED253F"/>
<path d="M27.521 19.6519C27.4644 19.6624 27.1587 20.8336 27.1855 20.8704C27.2124 20.9072 28.4142 20.7258 28.4259 20.6772C28.4376 20.6285 27.578 19.6416 27.521 19.6519Z" fill="#ED253F"/>
<path d="M63.5318 12.5938C63.4743 12.6044 63.1657 13.7883 63.1928 13.8253C63.2198 13.8624 64.4346 13.6791 64.4465 13.6301C64.4585 13.5811 63.5896 12.5838 63.5318 12.5938Z" fill="#ED253F"/>
<path d="M57.343 19.7481C57.2779 19.7601 56.9285 21.1 56.9592 21.1421C56.9899 21.1843 58.3648 20.9766 58.3782 20.9211C58.3917 20.8655 57.4082 19.7364 57.343 19.7481Z" fill="#ED253F"/>
<path d="M51.8878 12.2625C51.8529 12.3497 52.5483 13.848 52.5982 13.8455C52.6481 13.843 53.4171 12.0369 53.3879 11.9761C53.3586 11.9153 51.923 12.1753 51.8878 12.2625Z" fill="#ED253F"/>
<path d="M41.1316 12.6323C41.1064 12.7152 41.3496 14.0345 41.376 14.0282C41.4025 14.022 41.9481 12.3031 41.9376 12.2496C41.9271 12.1961 41.1567 12.5494 41.1316 12.6323Z" fill="#ED253F"/>
<path d="M26.2539 14.0778C26.3138 14.0425 26.2464 12.6282 26.2026 12.598C26.1601 12.5691 24.878 13.2666 24.8817 13.3247C24.8854 13.3828 26.194 14.113 26.2539 14.0778Z" fill="#ED253F"/>
<path d="M28.531 15.8396C28.4777 15.8688 28.1248 16.8323 28.1478 16.849C28.1707 16.8656 29.2967 16.2765 29.3106 16.237C29.3245 16.1976 28.5844 15.8103 28.531 15.8396Z" fill="#ED253F"/>
<path d="M35.7089 21.2599C35.6201 21.3086 35.033 22.9115 35.0715 22.9396C35.1091 22.9666 36.9831 21.9871 37.0062 21.9214C37.0293 21.8558 35.7976 21.2111 35.7089 21.2599Z" fill="#ED253F"/>
<path d="M44.818 22.9001C44.77 22.8458 43.5134 22.7756 43.4985 22.8101C43.484 22.8437 44.4636 23.9966 44.5149 23.999C44.5661 24.0013 44.8663 22.9539 44.818 22.9001Z" fill="#ED253F"/>
<path d="M14.7895 14.714C14.8095 14.6651 14.0305 13.862 13.988 13.8648C13.9455 13.8677 13.4964 14.8827 13.5288 14.9153C13.5613 14.9479 14.7695 14.7627 14.7895 14.714Z" fill="#ED253F"/>
<path d="M20.6907 18.4513C20.6981 18.5124 21.9445 18.8904 21.9863 18.8636C22.028 18.8367 21.9121 17.5497 21.8604 17.5349C21.8087 17.5202 20.6837 18.3905 20.6907 18.4513Z" fill="#ED253F"/>
<path d="M46.3825 19.4823C46.3501 19.5462 48.356 20.3405 48.4554 20.327C48.5515 20.314 49.3161 18.9848 49.2326 18.9529C49.148 18.9209 46.4143 19.4187 46.3825 19.4823Z" fill="#ED253F"/>
<path d="M54.9737 10.2392C55.0626 10.3654 58.8282 10.3261 58.9498 10.2392C59.0713 10.1523 58.8857 7.19185 58.9498 7.15776C59.0139 7.12366 60.167 10.1628 60.2562 10.2392C60.3455 10.3156 64.7759 10.3062 64.8145 10.2392C64.8531 10.1723 62.2694 6.49483 62.3011 6.36252C62.3327 6.23022 64.1897 5.01348 64.1897 3.55084C64.1897 0.866973 61.9034 0.298948 60.4834 0.298948C60.4834 0.298948 55.0842 0.139239 54.9737 0.298948C54.8632 0.458658 54.8848 10.1131 54.9737 10.2392ZM58.9498 2.8835C59.018 2.85037 59.3474 2.8835 59.3474 2.8835C59.7166 2.8835 60.3982 2.9403 60.3982 3.8207C60.3982 4.71532 59.7024 4.77213 59.3474 4.77213C59.3474 4.77213 58.9827 4.81064 58.9498 4.77213C58.9169 4.73361 58.8814 2.91662 58.9498 2.8835Z" fill="black" fill-opacity="0.99"/>
<path d="M46.6524 10.2393C46.7682 10.3688 53.6106 10.2393 53.6106 10.2393C53.6106 10.2393 53.6851 7.42036 53.6106 7.35665C53.5361 7.29295 50.6534 7.37556 50.6285 7.35665C50.6037 7.33774 50.6019 6.4211 50.6285 6.40523C50.6552 6.38935 53.2476 6.44823 53.3124 6.40523C53.3771 6.36223 53.3795 4.09255 53.3124 4.01959C53.2453 3.94664 50.6846 4.07936 50.6285 4.01959C50.5724 3.95982 50.5802 3.20462 50.6285 3.18177C50.6768 3.15893 53.5549 3.22256 53.6106 3.18177C53.6663 3.14098 53.7034 0.358905 53.6106 0.299135C53.5179 0.239365 46.779 0.142876 46.6524 0.299135C46.5258 0.455393 46.5367 10.1098 46.6524 10.2393Z" fill="black" fill-opacity="0.99"/>
<path d="M39.5665 4.27509C39.5136 4.48539 39.5136 6.41432 39.5665 6.56133C39.6194 6.70834 41.6052 6.50384 41.654 6.56133C41.7027 6.61882 41.0008 7.75418 40.0493 7.75418C39.4039 7.75889 38.7829 7.50736 38.3227 7.05479C37.8625 6.60221 37.6006 5.98555 37.5945 5.34011C37.5945 3.83488 38.7571 2.88346 40.0636 2.88346C40.7878 2.88346 41.854 3.72059 41.9859 3.7034C42.1179 3.68622 44.2821 2.39984 44.274 2.1384C44.266 1.87696 42.5947 -0.0454219 39.9215 0.000820651C37.2483 0.0470632 34.0994 2.68469 34.0994 5.34011C34.0994 8.37901 36.2862 10.5372 39.9641 10.5372C43.5142 10.5372 45.4312 8.43561 45.4312 5.46773C45.4312 5.46773 45.468 4.37606 45.4312 4.27488C45.3944 4.1737 39.6193 4.06479 39.5665 4.27509Z" fill="black" fill-opacity="0.99"/>
<path d="M22.739 10.2393C23.2371 10.7275 26.5163 10.2393 26.5163 10.2393C26.5163 10.2393 26.3497 5.50923 26.5163 5.46796C26.6829 5.42668 28.9281 10.0458 29.2001 10.2393C29.4722 10.4328 32.6974 10.5278 32.878 10.2393C33.0586 9.95079 33.0346 0.657416 32.878 0.299071C32.7215 -0.0592747 29.2594 0.151371 29.1008 0.299071C28.9422 0.446771 29.2802 4.98234 29.1008 4.97095C28.9213 4.95956 26.7138 0.436418 26.4737 0.299071C26.2336 0.161723 23.0132 -0.0371887 22.739 0.299071C22.4649 0.63533 22.241 9.75112 22.739 10.2393Z" fill="black" fill-opacity="0.99"/>
<path d="M10.6262 10.2393C10.8535 10.6214 14.5337 10.3672 14.7017 10.2393C14.8697 10.1114 15.0054 8.8589 15.0993 8.79084C15.1933 8.72279 17.5394 8.76469 17.5986 8.79084C17.6578 8.817 17.8332 10.1022 17.9962 10.2393C18.1592 10.3763 21.884 10.584 22.0717 10.2393C22.2594 9.89452 18.8237 0.521912 18.5358 0.29905C18.2478 0.0761882 14.3933 0.206496 14.1621 0.29905C13.9308 0.391604 10.399 9.85705 10.6262 10.2393ZM16.349 3.77815C16.4951 3.78298 17.1235 6.1731 17.0448 6.30582C16.9662 6.43855 15.6894 6.4547 15.6532 6.30582C15.617 6.15695 16.2029 3.77339 16.349 3.77815Z" fill="black" fill-opacity="0.99"/>
<path d="M0.44451 10.2392C1.00929 10.2316 5.07381 10.2392 5.07381 10.2392C8.79426 10.2392 10.399 7.93874 10.399 5.26909C10.399 3.03979 9.33392 0.298982 5.07381 0.298982C5.07381 0.298982 0.837364 0.030844 0.44451 0.298982C0.0516546 0.56712 -0.12034 10.2468 0.44451 10.2392ZM4.42061 7.35664C4.33475 7.32958 4.38962 3.21247 4.42061 3.18176C4.4516 3.15105 4.73299 3.18176 4.73299 3.18176C5.84061 3.18176 6.6074 3.83495 6.6074 5.26923C6.6074 7.24317 5.20156 7.35671 4.73299 7.35671C4.62934 7.3708 4.52426 7.37077 4.42061 7.35664Z" fill="black" fill-opacity="0.99"/>
</svg>
