<svg width="85" height="24" viewBox="0 0 85 24" fill="none" xmlns="http://www.w3.org/2000/svg">
<path d="M23.0494 18.224C20.6062 18.2602 18.1541 17.8469 15.8527 16.9934C13.5483 16.1428 11.3947 14.8579 9.54279 13.2231C7.69084 11.5883 6.13448 9.5976 5.03356 7.36862C3.92963 5.14265 3.28717 2.6754 3.24193 0.171945H2.74426C2.69901 2.7508 3.27209 5.3357 4.33983 7.69437C5.40455 10.0561 6.95489 12.1976 8.84303 13.9862C10.7282 15.7778 12.9571 17.2196 15.3792 18.2119C17.8012 19.2072 20.4162 19.7502 23.0524 19.8045V18.224H23.0494Z" fill="#AA7DDC"/>
<path d="M5.47091 0.174964C5.42567 2.3225 5.93541 4.48513 6.91266 6.4155C7.88388 8.34889 9.29848 10.0531 10.9725 11.4315C12.6495 12.8129 14.5829 13.8746 16.6339 14.5955C18.6879 15.3194 20.8626 15.7024 23.0494 15.7597V14.1792C21.0225 14.2124 18.9896 13.944 17.0411 13.3528C15.0986 12.7616 13.2437 11.8477 11.6149 10.6171C9.98618 9.38948 8.58665 7.84518 7.58829 6.05657C6.58691 4.27098 6.0078 2.24106 5.96255 0.171945H5.47393L5.47091 0.174964Z" fill="#AA7DDC"/>
<path d="M23.0494 22.2174C20.1659 22.2597 17.2673 21.7409 14.5768 20.6641C11.8834 19.5933 9.40405 17.9706 7.31985 15.9316C5.23263 13.8927 3.53752 11.4405 2.37025 8.74703C1.19996 6.05355 0.563538 3.12481 0.521311 0.171945H0.0025222C-0.0427209 3.19117 0.521312 6.22547 1.64636 9.04563C2.7714 11.8658 4.45445 14.4718 6.57484 16.6676C8.69222 18.8664 11.253 20.655 14.0731 21.8736C16.8933 23.0982 19.9668 23.7466 23.0524 23.7919V22.2114L23.0494 22.2174Z" fill="#AA7DDC"/>
<path d="M23.0494 5.74589C20.6062 5.7097 18.1541 6.12592 15.8527 6.97649C13.5483 7.82707 11.3947 9.11197 9.54279 10.7468C7.69084 12.3815 6.13448 14.3723 5.03356 16.6012C3.92963 18.8272 3.28717 21.2944 3.24193 23.7949H2.74426C2.69901 21.216 3.27209 18.6311 4.33983 16.2725C5.40455 13.9108 6.95489 11.7693 8.84303 9.98065C10.7282 8.18902 12.9571 6.74727 15.3792 5.75493C17.8012 4.75958 20.4162 4.21668 23.0524 4.16238V5.74288L23.0494 5.74589Z" fill="#AA7DDC"/>
<path d="M5.47091 23.7979C5.42567 21.6504 5.93541 19.4878 6.91266 17.5574C7.88388 15.621 9.29848 13.9198 10.9725 12.5414C12.6495 11.16 14.5829 10.0983 16.6339 9.37742C18.6879 8.65353 20.8626 8.27048 23.0494 8.21317V9.79366C21.0225 9.76048 18.9896 10.0289 17.0411 10.6201C15.0986 11.2113 13.2437 12.1252 11.6149 13.3558C9.98618 14.5834 8.58665 16.1277 7.58829 17.9163C6.58691 19.7019 6.0078 21.7318 5.96255 23.8009H5.47393L5.47091 23.7979Z" fill="#AA7DDC"/>
<path d="M23.0494 1.75244C20.1659 1.71021 17.2673 2.229 14.5768 3.30579C11.8834 4.37655 9.40405 5.99927 7.31985 8.03822C5.23263 10.0772 3.53752 12.5294 2.37025 15.2228C1.19996 17.9133 0.563538 20.8451 0.521311 23.7979H0.0025222C-0.0427209 20.7787 0.521312 17.7414 1.64636 14.9242C2.7714 12.1041 4.45445 9.49807 6.57484 7.30227C8.69222 5.10345 11.253 3.31484 14.0731 2.09629C16.8933 0.871707 19.9668 0.223226 23.0524 0.177983V1.75847L23.0494 1.75244Z" fill="#AA7DDC"/>
<path d="M28.4906 14.1702H26.2526V23.8371H28.4906V14.1702Z" fill="#AA7DDC"/>
<path d="M39.1469 14.1672V23.8341H37.31L32.4901 17.9646V23.8341H30.2823V14.1672H32.1312L36.936 20.0367V14.1672H39.1469Z" fill="#AA7DDC"/>
<path d="M40.9385 14.1672H45.3301C46.3798 14.1672 47.3057 14.3692 48.1111 14.7674C48.9164 15.1685 49.5438 15.7326 49.9902 16.4595C50.4366 17.1864 50.6598 18.0339 50.6598 18.9991C50.6598 19.9643 50.4366 20.8119 49.9902 21.5388C49.5438 22.2657 48.9194 22.8297 48.1111 23.2309C47.3057 23.632 46.3798 23.8311 45.3301 23.8311H40.9385V14.1641V14.1672ZM45.2185 21.9972C46.1837 21.9972 46.9559 21.7288 47.532 21.1889C48.1081 20.652 48.3946 19.9221 48.3946 18.9991C48.3946 18.0762 48.1081 17.3493 47.532 16.8094C46.9559 16.2695 46.1867 16.001 45.2185 16.001H43.1766V21.9942H45.2185V21.9972Z" fill="#AA7DDC"/>
<path d="M54.427 14.1702H52.189V23.8371H54.427V14.1702Z" fill="#AA7DDC"/>
<path d="M70.2169 23.3515C69.4115 22.9202 68.7812 22.323 68.3257 21.5629C67.8703 20.8028 67.641 19.9492 67.641 19.0021C67.641 18.055 67.8703 17.2015 68.3257 16.4414C68.7812 15.6813 69.4115 15.0871 70.2169 14.6528C71.0222 14.2215 71.9271 14.0043 72.9315 14.0043C73.9359 14.0043 74.8377 14.2215 75.637 14.6528C76.4363 15.0841 77.0667 15.6813 77.5282 16.4414C77.9896 17.2015 78.2189 18.055 78.2189 19.0021C78.2189 19.9492 77.9896 20.8028 77.5282 21.5629C77.0667 22.323 76.4363 22.9202 75.637 23.3515C74.8347 23.7828 73.9328 24 72.9315 24C71.9301 24 71.0222 23.7828 70.2169 23.3515ZM74.4758 21.7017C74.9372 21.4392 75.2992 21.0743 75.5586 20.6037C75.821 20.1332 75.9507 19.5993 75.9507 19.0021C75.9507 18.4049 75.821 17.8711 75.5586 17.4005C75.2962 16.93 74.9342 16.5651 74.4758 16.3026C74.0143 16.0402 73.5015 15.9105 72.9284 15.9105C72.3554 15.9105 71.8426 16.0402 71.3811 16.3026C70.9196 16.5651 70.5607 16.93 70.2983 17.4005C70.0359 17.8711 69.9062 18.4049 69.9062 19.0021C69.9062 19.5993 70.0389 20.1332 70.2983 20.6037C70.5607 21.0743 70.9227 21.4392 71.3811 21.7017C71.8396 21.9641 72.3554 22.0968 72.9284 22.0968C73.5015 22.0968 74.0143 21.9671 74.4758 21.7017Z" fill="#AA7DDC"/>
<path d="M65.7378 19.1258H61.2436V20.7334H63.7984C63.7863 20.7545 63.7742 20.7757 63.7622 20.7968C63.5118 21.1738 63.1861 21.4754 62.791 21.7016C62.3325 21.964 61.8137 22.0968 61.2436 22.0968C60.6736 22.0968 60.1578 21.964 59.6993 21.7016C59.2379 21.4422 58.8789 21.0743 58.6135 20.6067C58.3511 20.1362 58.2184 19.6023 58.2184 19.0021C58.2184 18.4019 58.3511 17.871 58.6135 17.4005C58.8759 16.93 59.2379 16.565 59.6993 16.3026C60.1608 16.0402 60.6766 15.9075 61.2436 15.9075C61.8107 15.9075 62.3325 16.0402 62.791 16.3026C63.1258 16.4926 63.4093 16.74 63.6355 17.0386L65.5055 15.9558C65.0923 15.4249 64.5735 14.9906 63.9522 14.6497C63.1499 14.2154 62.2511 14.0013 61.2436 14.0013C60.2362 14.0013 59.3374 14.2154 58.5321 14.6497C57.7267 15.0841 57.0964 15.6783 56.6409 16.4383C56.1824 17.1984 55.9562 18.052 55.9562 18.9991C55.9562 19.9462 56.1824 20.7998 56.6409 21.5599C57.0933 22.323 57.7267 22.9172 58.5321 23.3485C59.3374 23.7828 60.2423 24 61.2436 24C62.245 24 63.1499 23.7828 63.9522 23.3485C64.2237 23.2007 64.477 23.0378 64.7123 22.8448C65.1617 22.4889 65.5417 22.0636 65.8434 21.5599C66.2837 20.833 66.513 20.0246 66.5311 19.1228H65.7378V19.1258Z" fill="#AA7DDC"/>
<path d="M30.7136 4.85311V4.85009L34.9513 0.168925H32.1885L28.4755 4.1986V0.168925H26.2526V9.83287H28.4755V5.54683L32.1885 9.83287H34.9513L30.7136 4.85311Z" fill="#AA7DDC"/>
<path d="M41.8042 6.40946V9.83287H39.5692V6.38233L35.826 0.168925H38.2028L40.7847 4.461L43.3666 0.168925H45.5624L41.8042 6.40946Z" fill="#AA7DDC"/>
<path d="M52.5962 9.83285L50.7322 7.13938H48.6751V9.83285H46.4371V0.165906H50.6206C51.4772 0.165906 52.2192 0.307663 52.8495 0.594203C53.4799 0.880743 53.9655 1.28491 54.3064 1.80973C54.6472 2.33455 54.8161 2.95588 54.8161 3.67374C54.8161 4.3916 54.6442 5.00993 54.2973 5.53174C53.9535 6.05052 53.4618 6.44867 52.8254 6.72616L54.9941 9.83285H52.5901H52.5962ZM52.0291 2.42504C51.6792 2.13549 51.1695 1.99071 50.4969 1.99071H48.6751V5.35981H50.4969C51.1695 5.35981 51.6792 5.21202 52.0291 4.91644C52.379 4.62085 52.5539 4.20761 52.5539 3.67374C52.5539 3.13987 52.379 2.7146 52.0291 2.42504Z" fill="#AA7DDC"/>
<path d="M71.5259 6.40946V9.83287H69.2909V6.38233L65.5478 0.168925H67.9215L70.5064 4.461L73.0883 0.168925H75.2841L71.5259 6.40946Z" fill="#AA7DDC"/>
<path d="M84.4021 8.01107V9.83287H75.9507V8.3851L81.2532 1.99073H76.0623V0.168925H84.194V1.61672L78.9066 8.01107H84.4021Z" fill="#AA7DDC"/>
<path d="M65.6564 5.12454H61.1622V6.73218H63.7169C63.7049 6.7533 63.6928 6.77442 63.6807 6.79553C63.4304 7.17256 63.1046 7.47719 62.7095 7.70039C62.248 7.9628 61.7323 8.09551 61.1622 8.09551C60.5921 8.09551 60.0764 7.9628 59.6179 7.70039C59.1564 7.441 58.7975 7.07302 58.5321 6.60551C58.2697 6.13498 58.137 5.59809 58.137 5.00088C58.137 4.40367 58.2697 3.8698 58.5321 3.39927C58.7945 2.92875 59.1564 2.56378 59.6179 2.30137C60.0794 2.03896 60.5952 1.90625 61.1622 1.90625C61.7293 1.90625 62.2511 2.03896 62.7095 2.30137C63.0443 2.49139 63.3278 2.73872 63.5541 3.03733L65.4241 1.95452C65.0109 1.42366 64.4891 0.989324 63.8708 0.648492C63.0684 0.214158 62.1696 0 61.1622 0C60.1548 0 59.256 0.214158 58.4506 0.648492C57.6453 1.08283 57.0149 1.67702 56.5595 2.4371C56.101 3.19719 55.8748 4.05077 55.8748 4.99786C55.8748 5.94495 56.101 6.79854 56.5595 7.55862C57.0119 8.32172 57.6453 8.91591 58.4506 9.34723C59.256 9.78156 60.1608 9.99874 61.1622 9.99874C62.1636 9.99874 63.0684 9.78156 63.8708 9.34723C64.1422 9.19944 64.3956 9.03355 64.6309 8.84353C65.0803 8.48762 65.4603 8.06233 65.7619 7.55862C66.2023 6.83171 66.4315 6.02338 66.4496 5.12154H65.6564V5.12454Z" fill="#AA7DDC"/>
</svg>
