<svg width="81" height="23" viewBox="0 0 81 23" fill="none" xmlns="http://www.w3.org/2000/svg">
<path d="M5.48509 19.76C4.28069 19.76 3.26494 19.6221 2.43782 19.3464C1.62521 19.0707 1.01576 18.6935 0.609455 18.2146C0.203152 17.7212 0 17.1698 0 16.5604C0 15.8203 0.282961 15.2689 0.848883 14.9061C1.42932 14.5434 2.18388 14.362 3.11257 14.362C3.11257 15.5083 3.19964 16.466 3.37377 17.2351C3.56241 18.0042 3.86713 18.5846 4.28795 18.9764C4.70876 19.3537 5.26743 19.5423 5.96395 19.5423C6.5734 19.5423 7.07403 19.4263 7.46582 19.1941C7.85761 18.9619 8.14783 18.6499 8.33647 18.2581C8.53962 17.8518 8.6412 17.402 8.6412 16.9086C8.6412 16.3137 8.53962 15.8276 8.33647 15.4503C8.13332 15.0585 7.80682 14.703 7.35699 14.3837C6.92166 14.05 6.34849 13.6872 5.63745 13.2954C4.81034 12.8456 4.13558 12.3958 3.61319 11.9459C3.09081 11.4961 2.70627 11.01 2.45958 10.4876C2.2129 9.95068 2.08956 9.33397 2.08956 8.63745C2.08956 7.95545 2.2129 7.33148 2.45958 6.76556C2.72078 6.18513 3.09806 5.66999 3.59143 5.22016C4.09931 4.77032 4.71602 4.42206 5.44156 4.17538C6.18161 3.91418 7.02324 3.78358 7.96644 3.78358C9.1128 3.78358 10.0487 3.89967 10.7743 4.13185C11.5143 4.34951 12.0585 4.64698 12.4068 5.02426C12.7695 5.38703 12.9509 5.80059 12.9509 6.26494C12.9509 6.90341 12.7187 7.40404 12.2544 7.76681C11.79 8.12958 11.0137 8.31096 9.9254 8.31096C9.9254 7.59993 9.90364 6.97597 9.8601 6.43906C9.83108 5.90216 9.75127 5.45233 9.62068 5.08956C9.49008 4.72679 9.28693 4.45834 9.01122 4.28421C8.75003 4.09557 8.38726 4.00125 7.92291 4.00125C7.38601 4.00125 6.91441 4.11008 6.5081 4.32774C6.1018 4.5454 5.78982 4.85739 5.57216 5.26369C5.35449 5.66999 5.24566 6.14159 5.24566 6.67849C5.24566 7.33148 5.37626 7.85387 5.63745 8.24566C5.91316 8.63745 6.29044 8.97846 6.7693 9.26868C7.26267 9.55889 7.83584 9.88539 8.48883 10.2482C9.22888 10.6254 9.83108 11.0245 10.2954 11.4453C10.7743 11.8516 11.1225 12.3087 11.3402 12.8166C11.5724 13.3099 11.6885 13.8831 11.6885 14.5361C11.6885 15.3052 11.5579 16.009 11.2967 16.6474C11.0355 17.2859 10.6364 17.8373 10.0995 18.3017C9.57714 18.7515 8.93141 19.107 8.16234 19.3682C7.40778 19.6294 6.51536 19.76 5.48509 19.76Z" fill="#3C69DC"/>
<path d="M27.3719 7.8321L25.0429 19.5423H21.8215L22.0392 18.3887C21.0669 19.2739 19.8698 19.7165 18.4477 19.7165C17.5336 19.7165 16.6919 19.5061 15.9228 19.0852C15.1538 18.6644 14.5371 18.0622 14.0727 17.2786C13.6229 16.4806 13.398 15.5446 13.398 14.4708C13.398 13.1793 13.6809 12.0185 14.2469 10.9882C14.8273 9.94343 15.6109 9.13082 16.5976 8.55039C17.5843 7.95545 18.6727 7.65797 19.8625 7.65797C21.6619 7.65797 22.9316 8.24566 23.6716 9.42104L23.9764 7.8321H27.3719ZM19.4925 16.9086C20.16 16.9086 20.755 16.749 21.2773 16.4298C21.7997 16.096 22.206 15.6389 22.4963 15.0585C22.7865 14.4781 22.9316 13.8106 22.9316 13.056C22.9316 12.2579 22.6922 11.6267 22.2133 11.1623C21.7489 10.698 21.096 10.4658 20.2543 10.4658C19.5868 10.4658 18.9919 10.6327 18.4695 10.9664C17.9471 11.2857 17.5408 11.7355 17.2506 12.3159C16.9604 12.8964 16.8153 13.5639 16.8153 14.3184C16.8153 15.1165 17.0474 15.7478 17.5118 16.2121C17.9906 16.6765 18.6509 16.9086 19.4925 16.9086Z" fill="#3C69DC"/>
<path d="M39.418 19.6512C38.5618 19.6512 37.8581 19.5859 37.3066 19.4553C36.7697 19.3102 36.3344 19.0635 36.0007 18.7152C35.6669 18.3525 35.3694 17.8373 35.1083 17.1698L33.8676 13.8614L35.1083 12.8601L33.3017 14.449L32.2351 19.5423H28.4696L31.5604 4.9372C31.6039 4.74855 31.6402 4.56717 31.6692 4.39304C31.6982 4.21891 31.7127 4.08106 31.7127 3.97948C31.7127 3.66024 31.6329 3.45709 31.4733 3.37003C31.3282 3.26845 31.0742 3.21766 30.7115 3.21766H30.1238L30.1673 3H35.8918L34.4988 9.37751C34.4408 9.62419 34.3755 9.8999 34.3029 10.2046C34.2449 10.5094 34.1723 10.8286 34.0852 11.1623C34.0127 11.4961 33.9329 11.8371 33.8458 12.1854C33.7587 12.5336 33.6717 12.8746 33.5846 13.2084C33.5121 13.5276 33.4323 13.8323 33.3452 14.1225L37.2631 10.727C37.6839 10.3497 38.0249 10.0232 38.2861 9.74753C38.5473 9.45732 38.6779 9.17436 38.6779 8.89865C38.6779 8.5649 38.4893 8.34724 38.112 8.24566C37.7347 8.14409 37.2123 8.0933 36.5448 8.0933L36.5884 7.87564L42.4 7.83997L42.2911 8.0933C41.7832 8.0933 41.2028 8.24566 40.5498 8.55039C39.9113 8.84061 39.2293 9.2977 38.5038 9.92166L35.4565 12.5989L36.6972 11.3582L39.7009 18.3234C39.846 18.6136 39.9621 18.8458 40.0492 19.0199C40.1508 19.1796 40.2596 19.2884 40.3757 19.3464C40.4918 19.4045 40.6224 19.4335 40.7675 19.4335L40.7022 19.6512H39.418Z" fill="#3C69DC"/>
<path d="M46.6813 15.4068C46.6522 15.5228 46.6377 15.6825 46.6377 15.8856C46.6377 16.6402 47.0513 17.0175 47.8784 17.0175C48.3282 17.0175 48.7853 16.8796 49.2497 16.6039L49.7503 19.0199C48.9957 19.4843 48.0235 19.7165 46.8336 19.7165C45.7308 19.7165 44.8456 19.4263 44.1781 18.8458C43.5106 18.2654 43.1769 17.4673 43.1769 16.4515C43.1769 16.1613 43.2132 15.8203 43.2857 15.4285L44.2217 10.7052H42.4151L43 7.8321L45 7.83997L45.31 5.24192H48.7055L48.1396 8.0933H51.0563L50.5339 10.7052H47.6172L46.6813 15.4068Z" fill="#3C69DC"/>
<path d="M65.3778 7.8321L63.0488 19.5423H59.8274L60.045 18.3887C59.0728 19.2739 57.8757 19.7165 56.4536 19.7165C55.5394 19.7165 54.6978 19.5061 53.9287 19.0852C53.1597 18.6644 52.543 18.0622 52.0786 17.2786C51.6288 16.4806 51.4039 15.5446 51.4039 14.4708C51.4039 13.1793 51.6868 12.0185 52.2527 10.9882C52.8332 9.94343 53.6168 9.13082 54.6035 8.55039C55.5902 7.95545 56.6785 7.65797 57.8684 7.65797C59.6678 7.65797 60.9375 8.24566 61.6775 9.42104L61.9822 7.8321H65.3778ZM57.4984 16.9086C58.1659 16.9086 58.7608 16.749 59.2832 16.4298C59.8056 16.096 60.2119 15.6389 60.5021 15.0585C60.7924 14.4781 60.9375 13.8106 60.9375 13.056C60.9375 12.2579 60.698 11.6267 60.2192 11.1623C59.7548 10.698 59.1018 10.4658 58.2602 10.4658C57.5927 10.4658 56.9978 10.6327 56.4754 10.9664C55.953 11.2857 55.5467 11.7355 55.2565 12.3159C54.9663 12.8964 54.8211 13.5639 54.8211 14.3184C54.8211 15.1165 55.0533 15.7478 55.5177 16.2121C55.9965 16.6765 56.6568 16.9086 57.4984 16.9086Z" fill="#3C69DC"/>
<path d="M77.0538 19.76C76.1251 19.76 75.4214 19.5496 74.9425 19.1288C74.4636 18.6935 74.2242 18.113 74.2242 17.3875C74.2242 17.0828 74.246 16.7417 74.2895 16.3645C74.3476 15.9872 74.4346 15.5446 74.5507 15.0367L75.1602 12.2507C75.2037 12.062 75.2545 11.8226 75.3125 11.5324C75.3851 11.2276 75.4431 10.9229 75.4867 10.6182C75.5302 10.2989 75.552 10.016 75.552 9.7693C75.552 9.56615 75.5374 9.37025 75.5084 9.18161C75.4794 8.97846 75.3996 8.81159 75.269 8.68099C75.1529 8.53588 74.9788 8.46333 74.7466 8.46333C74.4129 8.46333 74.1009 8.57941 73.8107 8.81158C73.535 9.04376 73.2738 9.34848 73.0271 9.72577C72.7949 10.103 72.5917 10.5094 72.4176 10.9447C72.2435 11.38 72.1129 11.7936 72.0258 12.1854L70.2628 19.5423H66.4972L68.5432 9.87813C68.5722 9.704 68.6013 9.51536 68.6303 9.31221C68.6738 9.09455 68.6956 8.92767 68.6956 8.81158C68.6956 8.5649 68.6303 8.38352 68.4997 8.26743C68.3836 8.15134 68.1152 8.0933 67.6943 8.0933H67.2155L67.2373 7.87564H72.7441L72.3088 10.4876H72.3741C72.7223 9.77655 73.0851 9.21789 73.4624 8.81158C73.8542 8.39077 74.304 8.0933 74.8119 7.91917C75.3198 7.74504 75.9075 7.65797 76.575 7.65797C77.257 7.65797 77.7939 7.77406 78.1857 8.00623C78.5775 8.23841 78.8532 8.54313 79.0128 8.92042C79.1869 9.2977 79.274 9.71851 79.274 10.1829C79.274 10.5601 79.2232 10.981 79.1216 11.4453C79.0346 11.8951 78.9547 12.3087 78.8822 12.686L78.1639 16.0162C78.0913 16.408 78.0188 16.7708 77.9462 17.1045C77.8882 17.4383 77.8592 17.7648 77.8592 18.084C77.8592 18.4032 77.9317 18.6499 78.0768 18.8241C78.2219 18.9837 78.4178 19.0635 78.6645 19.0635C78.9257 19.0635 79.1724 18.9982 79.4046 18.8676C79.6368 18.737 79.8544 18.5919 80.0576 18.4323C80.2607 18.2581 80.4276 18.1058 80.5582 17.9752L80.6888 18.1493C80.3405 18.5411 79.8689 18.9111 79.274 19.2594C78.679 19.5931 77.939 19.76 77.0538 19.76Z" fill="#3C69DC"/>
</svg>
