<svg width="25" height="24" viewBox="0 0 25 24" fill="none" xmlns="http://www.w3.org/2000/svg">
<path d="M3.33331 14V10C3.33331 6.22876 3.33331 4.34315 4.50489 3.17157C5.67646 2 7.56208 2 11.3333 2H13.3333C17.1045 2 18.9902 2 20.1617 3.17157C20.8149 3.82476 21.1039 4.69989 21.2318 6M21.3333 10V14C21.3333 17.7712 21.3333 19.6569 20.1617 20.8284C18.9902 22 17.1045 22 13.3333 22H11.3333C7.56208 22 5.67646 22 4.50489 20.8284C3.85171 20.1752 3.56269 19.3001 3.4348 18" stroke="black" stroke-opacity="0.99" stroke-width="1.5" stroke-linecap="round"/>
<path d="M8.33331 14H13.3333" stroke="black" stroke-opacity="0.99" stroke-width="1.5" stroke-linecap="round"/>
<path d="M8.33331 10H9.33331M16.3333 10H12.3333" stroke="black" stroke-opacity="0.99" stroke-width="1.5" stroke-linecap="round"/>
</svg>
