<svg width="25" height="24" viewBox="0 0 25 24" fill="none" xmlns="http://www.w3.org/2000/svg">
<path d="M11.536 21.5102L12.1814 21.8922L12.1814 21.8922L11.536 21.5102ZM11.7954 21.0719L11.15 20.6899L11.15 20.6899L11.7954 21.0719ZM9.5379 21.0719L10.1833 20.6899L10.1833 20.6899L9.5379 21.0719ZM9.79733 21.5102L10.4427 21.1282L10.4427 21.1282L9.79733 21.5102ZM6.95599 19.585L6.97997 18.8354L6.97997 18.8354L6.95599 19.585ZM5.13595 19.2956L4.84894 19.9885L4.84894 19.9885L5.13595 19.2956ZM3.66408 16.8438C3.50557 16.4611 3.06684 16.2794 2.68416 16.4379C2.30147 16.5964 2.11975 17.0351 2.27826 17.4178L3.66408 16.8438ZM18.3622 17.1308L19.0551 17.4178L19.0551 17.4178L18.3622 17.1308ZM14.3773 19.585L14.3534 18.8354L14.3534 18.8354L14.3773 19.585ZM16.1974 19.2956L16.4844 19.9885L16.4844 19.9885L16.1974 19.2956ZM4.57669 6.58944L4.18482 5.94996L4.18482 5.94996L4.57669 6.58944ZM1.91669 12.8C1.91669 13.2142 2.25247 13.55 2.66669 13.55C3.0809 13.55 3.41669 13.2142 3.41669 12.8H1.91669ZM3.25613 7.91001L2.61665 7.51814L2.61665 7.51814L3.25613 7.91001ZM8.58306 19.8223L8.20122 20.4679L8.20122 20.4679L8.58306 19.8223ZM15.5151 6.91393C15.9208 6.99765 16.3175 6.73665 16.4012 6.33099C16.4849 5.92532 16.2239 5.5286 15.8183 5.44489L15.5151 6.91393ZM19.2218 8.84842C19.1381 8.44275 18.7414 8.18176 18.3357 8.26548C17.93 8.34919 17.669 8.74591 17.7528 9.15158L19.2218 8.84842ZM22.3812 12.4351L23.0741 12.7221L23.0741 12.7221L22.3812 12.4351ZM20.3517 14.4646L20.6387 15.1575L20.6387 15.1575L20.3517 14.4646ZM9.45726 2.5526L9.06539 1.91312L9.06539 1.91312L9.45726 2.5526ZM8.21923 3.79064L7.57975 3.39876L7.57975 3.39877L8.21923 3.79064ZM6.9509 5.96104C6.92939 6.37469 7.24728 6.72747 7.66093 6.74899C8.07458 6.7705 8.42736 6.45261 8.44888 6.03896L6.9509 5.96104ZM18.6418 13.9857C18.2278 13.9994 17.9033 14.3462 17.9171 14.7601C17.9309 15.1741 18.2776 15.4986 18.6916 15.4848L18.6418 13.9857ZM19.5426 2.87292C19.9511 2.94144 20.3378 2.66583 20.4064 2.25732C20.4749 1.84881 20.1993 1.46211 19.7908 1.39359L19.5426 2.87292ZM23.2731 4.87594C23.2045 4.46743 22.8178 4.19181 22.4093 4.26033C22.0008 4.32885 21.7252 4.71555 21.7937 5.12406L23.2731 4.87594ZM12.1814 21.8922L12.4409 21.4539L11.15 20.6899L10.8906 21.1282L12.1814 21.8922ZM8.89248 21.4539L9.15192 21.8922L10.4427 21.1282L10.1833 20.6899L8.89248 21.4539ZM10.8906 21.1282C10.8452 21.2049 10.7659 21.25 10.6667 21.25C10.5674 21.25 10.4882 21.2049 10.4427 21.1282L9.15192 21.8922C9.82886 23.0359 11.5045 23.0359 12.1814 21.8922L10.8906 21.1282ZM9.46669 6.75H11.8667V5.25H9.46669V6.75ZM17.9167 12.8V13.6H19.4167V12.8H17.9167ZM6.97997 18.8354C6.18771 18.81 5.75715 18.7411 5.42297 18.6027L4.84894 19.9885C5.4458 20.2357 6.10413 20.3081 6.93202 20.3346L6.97997 18.8354ZM2.27826 17.4178C2.76035 18.5817 3.68506 19.5064 4.84894 19.9885L5.42297 18.6027C4.62663 18.2728 3.99393 17.6401 3.66408 16.8438L2.27826 17.4178ZM17.9167 13.6C17.9167 14.5422 17.9163 15.2112 17.8804 15.7376C17.8449 16.2573 17.7774 16.5828 17.6693 16.8438L19.0551 17.4178C19.2515 16.9436 19.3362 16.4357 19.3769 15.8397C19.4171 15.2504 19.4167 14.5217 19.4167 13.6H17.9167ZM14.4013 20.3346C15.2292 20.3081 15.8876 20.2357 16.4844 19.9885L15.9104 18.6027C15.5762 18.7411 15.1457 18.81 14.3534 18.8354L14.4013 20.3346ZM17.6693 16.8438C17.3394 17.6401 16.7067 18.2728 15.9104 18.6027L16.4844 19.9885C17.6483 19.5064 18.573 18.5817 19.0551 17.4178L17.6693 16.8438ZM9.46669 5.25C8.17184 5.25 7.14803 5.24921 6.32937 5.32705C5.49955 5.40595 4.8034 5.57089 4.18482 5.94996L4.96857 7.22892C5.31186 7.01855 5.75133 6.88877 6.47136 6.82031C7.20254 6.75079 8.14279 6.75 9.46669 6.75V5.25ZM3.41669 12.8C3.41669 11.4761 3.41748 10.5359 3.487 9.80468C3.55546 9.08466 3.68524 8.64518 3.89561 8.30189L2.61665 7.51814C2.23758 8.13673 2.07263 8.83288 1.99373 9.6627C1.9159 10.4814 1.91669 11.5052 1.91669 12.8H3.41669ZM4.18482 5.94996C3.54568 6.34163 3.00831 6.879 2.61665 7.51814L3.89561 8.30189C4.16359 7.86458 4.53126 7.4969 4.96857 7.22892L4.18482 5.94996ZM10.1833 20.6899C9.98251 20.3506 9.80638 20.0516 9.63557 19.8164C9.45586 19.569 9.24996 19.3454 8.9649 19.1768L8.20122 20.4679C8.24732 20.4951 8.31096 20.5451 8.42193 20.6979C8.5418 20.863 8.67751 21.0907 8.89248 21.4539L10.1833 20.6899ZM6.93202 20.3346C7.37746 20.3489 7.6622 20.3587 7.87851 20.3851C8.083 20.41 8.15974 20.4433 8.20122 20.4679L8.9649 19.1768C8.67522 19.0055 8.3704 18.9339 8.06013 18.8961C7.76167 18.8597 7.39846 18.8488 6.97997 18.8354L6.93202 20.3346ZM12.4409 21.4539C12.6558 21.0907 12.7915 20.863 12.9114 20.6979C13.0224 20.5451 13.086 20.4951 13.1321 20.4679L12.3684 19.1768C12.0834 19.3454 11.8775 19.569 11.6978 19.8164C11.527 20.0516 11.3508 20.3506 11.15 20.6899L12.4409 21.4539ZM14.3534 18.8354C13.9349 18.8488 13.5717 18.8597 13.2732 18.8961C12.9629 18.9339 12.6581 19.0055 12.3684 19.1768L13.1321 20.4679C13.1736 20.4433 13.2503 20.41 13.4548 20.3851C13.6711 20.3587 13.9559 20.3489 14.4013 20.3346L14.3534 18.8354ZM11.8667 6.75C13.6645 6.75 14.7394 6.75386 15.5151 6.91393L15.8183 5.44489C14.8552 5.24614 13.592 5.25 11.8667 5.25V6.75ZM19.4167 12.8C19.4167 11.0747 19.4205 9.81149 19.2218 8.84842L17.7528 9.15158C17.9128 9.92727 17.9167 11.0022 17.9167 12.8H19.4167ZM14.0416 2.75H16.2916V1.25H14.0416V2.75ZM21.9166 8.37503V9.12503H23.4166V8.37503H21.9166ZM21.9166 9.12503C21.9166 10.0089 21.9162 10.6343 21.8827 11.1258C21.8496 11.6106 21.7868 11.9101 21.6883 12.1481L23.0741 12.7221C23.261 12.2709 23.3409 11.7891 23.3792 11.2279C23.417 10.6735 23.4166 9.98841 23.4166 9.12503H21.9166ZM21.6883 12.1481C21.3838 12.8832 20.7998 13.4672 20.0647 13.7717L20.6387 15.1575C21.7413 14.7008 22.6174 13.8247 23.0741 12.7221L21.6883 12.1481ZM14.0416 1.25C12.8286 1.25 11.8662 1.24921 11.096 1.32244C10.3146 1.39674 9.65392 1.55247 9.06539 1.91312L9.84914 3.19208C10.1624 3.00013 10.5664 2.87956 11.2379 2.81571C11.9207 2.75079 12.7996 2.75 14.0416 2.75V1.25ZM9.06539 1.91312C8.45989 2.28417 7.9508 2.79326 7.57975 3.39876L8.85871 4.18251C9.10608 3.77884 9.44547 3.43945 9.84914 3.19208L9.06539 1.91312ZM8.44888 6.03896C8.49883 5.07858 8.62375 4.56594 8.85871 4.18251L7.57975 3.39877C7.14263 4.11209 7.00416 4.93717 6.9509 5.96104L8.44888 6.03896ZM18.6916 15.4848C19.4582 15.4593 20.076 15.3906 20.6387 15.1575L20.0647 13.7717C19.7627 13.8968 19.3706 13.9614 18.6418 13.9857L18.6916 15.4848ZM16.2916 2.75C17.8483 2.75 18.8249 2.75254 19.5426 2.87292L19.7908 1.39359C18.9196 1.24746 17.7912 1.25 16.2916 1.25V2.75ZM23.4166 8.37503C23.4166 6.87546 23.4192 5.74709 23.2731 4.87594L21.7937 5.12406C21.9141 5.84174 21.9166 6.81843 21.9166 8.37503H23.4166Z" fill="black" fill-opacity="0.99"/>
<path d="M7.17596 13H7.18496M10.6667 13H10.6757M14.1577 13H14.1667" stroke="black" stroke-opacity="0.99" stroke-width="2" stroke-linecap="round" stroke-linejoin="round"/>
</svg>
