<svg width="28" height="29" viewBox="0 0 28 29" fill="none" 
	xmlns="http://www.w3.org/2000/svg">
	<path d="M14 9.33535V14.002" stroke="black" stroke-opacity="0.99" stroke-width="1.5" stroke-linecap="round"/>
	<ellipse cx="13.9999" cy="17.502" rx="1.16667" ry="1.16667" fill="black" fill-opacity="0.99"/>
	<path d="M3.5 12.1548C3.5 8.42426 3.5 6.559 3.94043 5.93149C4.38087 5.30398 6.13471 4.70363 9.6424 3.50294L10.3107 3.27418C12.1391 2.64829 13.0534 2.33535 14 2.33535C14.9466 2.33535 15.8609 2.64829 17.6893 3.27418L18.3576 3.50294C21.8653 4.70363 23.6191 5.30398 24.0596 5.93149C24.5 6.559 24.5 8.42426 24.5 12.1548C24.5 12.7183 24.5 13.3293 24.5 13.9919C24.5 16.9144 23.5238 19.1685 22.1667 20.8902M3.72498 16.3353C4.7253 21.3501 8.83915 23.9337 11.5483 25.1172C12.39 25.4848 12.8109 25.6687 14 25.6687C15.1891 25.6687 15.61 25.4848 16.4517 25.1172C17.1262 24.8225 17.8878 24.4411 18.6667 23.957" stroke="black" stroke-opacity="0.99" stroke-width="1.5" stroke-linecap="round"/>
</svg>