<svg width="28" height="28" viewBox="0 0 28 28" fill="none" 
	xmlns="http://www.w3.org/2000/svg">
	<path d="M7 5.49562C7.91029 6.32457 9.78547 8.59036 10.0039 11.0219C10.1501 12.6491 10.9605 14.0579 12.25 14.7362C12.7617 15.0054 13.3489 15.1596 14 15.1667C14.8807 15.1763 15.7714 14.54 15.7691 13.6593C15.7684 13.387 15.7235 13.1085 15.6531 12.8523C15.5553 12.496 15.5466 12.086 15.75 11.6667C16.4615 10.1996 17.861 9.80556 18.9698 9.00884C19.4616 8.65549 19.9103 8.28272 20.1081 7.98246C20.6543 7.15351 21.2004 5.49562 20.9274 4.66667" stroke="black" stroke-opacity="0.99" stroke-width="1.5"/>
	<path d="M25.6667 15.1667C25.2825 16.2529 25.0105 19.1042 20.6714 19.1494C20.6714 19.1494 19.7457 19.1494 18.6667 19.4063M15.676 21.3218C14.7537 23.0598 15.2917 24.9425 15.676 25.6667" stroke="black" stroke-opacity="0.99" stroke-width="1.5" stroke-linecap="round"/>
	<path d="M8.16658 24.1059C9.8826 25.0985 11.8749 25.6667 13.9999 25.6667C20.4432 25.6667 25.6666 20.4433 25.6666 14C25.6666 7.55668 20.4432 2.33334 13.9999 2.33334C7.5566 2.33334 2.33325 7.55668 2.33325 14C2.33325 16.125 2.90139 18.1173 3.89404 19.8333" stroke="black" stroke-opacity="0.99" stroke-width="1.5" stroke-linecap="round"/>
</svg>