<svg width="28" height="29" viewBox="0 0 28 29" fill="none" 
	xmlns="http://www.w3.org/2000/svg">
	<path d="M2.91675 15.1697V20.4197C2.91675 22.6196 2.91675 23.7195 3.60017 24.4029C4.28358 25.0864 5.38353 25.0864 7.58341 25.0864C9.7833 25.0864 10.8832 25.0864 11.5667 24.4029C12.2501 23.7195 12.2501 22.6196 12.2501 20.4197V7.58636C12.2501 5.38647 12.2501 4.28652 11.5667 3.60311C10.8832 2.91969 9.7833 2.91969 7.58341 2.91969C5.38353 2.91969 4.28358 2.91969 3.60017 3.60311C2.91675 4.28652 2.91675 5.38647 2.91675 7.58636V10.503" stroke="black" stroke-opacity="0.99" stroke-width="1.5" stroke-linecap="round"/>
	<path d="M25.0828 21.003C25.0775 22.8197 25.0201 23.7828 24.3999 24.4029C23.7165 25.0864 22.6166 25.0864 20.4167 25.0864C18.2168 25.0864 17.1168 25.0864 16.4334 24.4029C15.75 23.7195 15.75 22.6196 15.75 20.4197V18.0864C15.75 15.8865 15.75 14.7865 16.4334 14.1031C17.1168 13.4197 18.2168 13.4197 20.4167 13.4197C22.6166 13.4197 23.7165 13.4197 24.3999 14.1031C24.8714 14.5745 25.0176 15.2442 25.0629 16.3364" stroke="black" stroke-opacity="0.99" stroke-width="1.5" stroke-linecap="round"/>
	<path d="M15.75 6.41969C15.75 5.33249 15.75 4.78889 15.9276 4.36009C16.1644 3.78836 16.6187 3.33412 17.1904 3.0973C17.6192 2.91969 18.1628 2.91969 19.25 2.91969H21.5833C22.6705 2.91969 23.2141 2.91969 23.6429 3.0973C24.2147 3.33412 24.6689 3.78836 24.9057 4.36009C25.0833 4.78889 25.0833 5.33249 25.0833 6.41969C25.0833 7.50689 25.0833 8.05048 24.9057 8.47928C24.6689 9.05102 24.2147 9.50526 23.6429 9.74207C23.2141 9.91969 22.6705 9.91969 21.5833 9.91969H19.25C18.1628 9.91969 17.6192 9.91969 17.1904 9.74207C16.6187 9.50526 16.1644 9.05102 15.9276 8.47928C15.75 8.05048 15.75 7.50689 15.75 6.41969Z" stroke="black" stroke-opacity="0.99" stroke-width="1.5"/>
</svg>