<svg width="28" height="29" viewBox="0 0 28 29" fill="none" xmlns="http://www.w3.org/2000/svg">
<path d="M19.8334 14.0042C23.055 14.0042 25.6667 11.3925 25.6667 8.17086C25.6667 4.9492 23.055 2.33752 19.8334 2.33752C16.6117 2.33752 14 4.9492 14 8.17086C14 9.10401 14.2191 9.98598 14.6087 10.7681C14.7122 10.976 14.7467 11.2136 14.6867 11.4379L14.3392 12.7364C14.1884 13.3001 14.7041 13.8158 15.2678 13.665L16.5663 13.3175C16.7906 13.2575 17.0282 13.292 17.2361 13.3955C18.0182 13.7851 18.9002 14.0042 19.8334 14.0042Z" stroke="#3C69DC" stroke-width="1.5"/>
<path d="M16.4509 18.7025L16.9947 19.219H16.9947L16.4509 18.7025ZM16.9822 18.1431L16.4384 17.6266V17.6266L16.9822 18.1431ZM19.8017 17.7518L19.4275 18.4018L19.8017 17.7518ZM22.0306 19.0348L21.6564 19.6848L22.0306 19.0348ZM22.6586 23.0556L23.2024 23.5721L22.6586 23.0556ZM21.0013 24.8004L20.4575 24.2839L21.0013 24.8004ZM19.4557 25.6277L19.5294 26.3741L19.4557 25.6277ZM7.95128 20.3918L8.49508 19.8753L7.95128 20.3918ZM3.08565 9.2575C3.06345 8.84389 2.71015 8.52658 2.29653 8.54878C1.88291 8.57098 1.56561 8.92428 1.58781 9.3379L3.08565 9.2575ZM9.55585 11.4434L10.0996 11.9599L9.55585 11.4434ZM9.89047 11.0911L10.4343 11.6076L9.89047 11.0911ZM10.0733 7.81273L10.6857 7.37974V7.37974L10.0733 7.81273ZM8.60216 5.73199L7.98977 6.16498L7.98977 6.16498L8.60216 5.73199ZM4.42793 4.86434C4.14266 5.16467 4.15488 5.63939 4.45521 5.92465C4.75553 6.20992 5.23025 6.1977 5.51551 5.89737L4.42793 4.86434ZM11.7403 16.4027L12.2841 15.8861L11.7403 16.4027ZM11.3413 24.1793C11.692 24.3997 12.155 24.2941 12.3754 23.9434C12.5958 23.5926 12.4901 23.1297 12.1394 22.9093L11.3413 24.1793ZM16.4395 24.6946C16.0341 24.6097 15.6366 24.8696 15.5517 25.275C15.4668 25.6804 15.7267 26.0779 16.1321 26.1628L16.4395 24.6946ZM16.9947 19.219L17.526 18.6596L16.4384 17.6266L15.9071 18.186L16.9947 19.219ZM19.4275 18.4018L21.6564 19.6848L22.4047 18.3847L20.1758 17.1018L19.4275 18.4018ZM22.1149 22.5391L20.4575 24.2839L21.5451 25.317L23.2024 23.5721L22.1149 22.5391ZM8.49508 19.8753C3.95151 15.0918 3.18172 11.0472 3.08565 9.2575L1.58781 9.3379C1.70209 11.467 2.60688 15.8542 7.40749 20.9083L8.49508 19.8753ZM10.0996 11.9599L10.4343 11.6076L9.34667 10.5746L9.01206 10.9268L10.0996 11.9599ZM10.6857 7.37974L9.21455 5.29901L7.98977 6.16498L9.46092 8.24571L10.6857 7.37974ZM9.55585 11.4434C9.01206 10.9268 9.01136 10.9276 9.01067 10.9283C9.01043 10.9286 9.00972 10.9293 9.00925 10.9298C9.00829 10.9308 9.00731 10.9319 9.00632 10.933C9.00433 10.9351 9.00226 10.9373 9.00012 10.9397C8.99584 10.9444 8.99126 10.9495 8.98642 10.9551C8.97674 10.9662 8.96599 10.9791 8.9544 10.9937C8.93121 11.023 8.90465 11.0595 8.87658 11.1033C8.82029 11.1913 8.75843 11.3084 8.70577 11.4564C8.59885 11.7569 8.53844 12.1604 8.6132 12.6706C8.76037 13.6751 9.42294 15.0519 11.1965 16.9192L12.2841 15.8861C10.6102 14.1238 10.1806 13.021 10.0974 12.4532C10.0569 12.1773 10.0968 12.0216 10.119 11.9593C10.1308 11.9259 10.1407 11.9108 10.14 11.9118C10.1398 11.9123 10.137 11.9166 10.1306 11.9246C10.1274 11.9286 10.1234 11.9336 10.1182 11.9395C10.1157 11.9424 10.1129 11.9456 10.1098 11.949C10.1082 11.9507 10.1066 11.9524 10.1049 11.9543C10.1041 11.9552 10.1032 11.9561 10.1023 11.957C10.1019 11.9575 10.1012 11.9582 10.101 11.9584C10.1003 11.9592 10.0996 11.9599 9.55585 11.4434ZM11.1965 16.9192C12.9657 18.7817 14.284 19.4941 15.2682 19.654C15.7718 19.7358 16.1742 19.6698 16.4748 19.5513C16.6221 19.4932 16.7377 19.4253 16.8238 19.3643C16.8667 19.3339 16.9021 19.3052 16.9304 19.2804C16.9446 19.268 16.957 19.2565 16.9677 19.2462C16.973 19.241 16.9779 19.2362 16.9824 19.2316C16.9847 19.2294 16.9868 19.2272 16.9888 19.2251C16.9899 19.224 16.9909 19.223 16.9918 19.222C16.9923 19.2215 16.993 19.2207 16.9933 19.2205C16.994 19.2198 16.9947 19.219 16.4509 18.7025C15.9071 18.186 15.9078 18.1853 15.9084 18.1846C15.9087 18.1843 15.9093 18.1836 15.9098 18.1832C15.9107 18.1822 15.9116 18.1813 15.9124 18.1804C15.9141 18.1786 15.9158 18.1769 15.9175 18.1753C15.9207 18.172 15.9238 18.169 15.9266 18.1663C15.9323 18.1608 15.9372 18.1563 15.9413 18.1527C15.9494 18.1456 15.9543 18.142 15.956 18.1408C15.9594 18.1384 15.9495 18.146 15.9245 18.1559C15.8805 18.1732 15.7517 18.2129 15.5086 18.1734C14.9994 18.0907 13.9625 17.6532 12.2841 15.8861L11.1965 16.9192ZM9.21455 5.29901C8.0738 3.68558 5.79986 3.41995 4.42793 4.86434L5.51551 5.89737C6.1841 5.19348 7.35025 5.26048 7.98977 6.16498L9.21455 5.29901ZM20.4575 24.2839C20.1183 24.6411 19.7517 24.8449 19.382 24.8813L19.5294 26.3741C20.3623 26.2919 21.0416 25.8471 21.5451 25.317L20.4575 24.2839ZM10.4343 11.6076C11.5196 10.4649 11.5992 8.67172 10.6857 7.37974L9.46092 8.24571C9.9858 8.98808 9.90997 9.98152 9.34667 10.5746L10.4343 11.6076ZM21.6564 19.6848C22.6818 20.2749 22.8875 21.7257 22.1149 22.5391L23.2024 23.5721C24.6672 22.03 24.2421 19.4423 22.4047 18.3847L21.6564 19.6848ZM17.526 18.6596C18.0164 18.1433 18.7806 18.0294 19.4275 18.4018L20.1758 17.1018C18.9431 16.3923 17.4171 16.5962 16.4384 17.6266L17.526 18.6596ZM12.1394 22.9093C10.9824 22.1822 9.75289 21.1996 8.49508 19.8753L7.40749 20.9083C8.74704 22.3186 10.0729 23.3822 11.3413 24.1793L12.1394 22.9093ZM19.382 24.8813C18.7336 24.9453 17.7117 24.961 16.4395 24.6946L16.1321 26.1628C17.5745 26.4648 18.7517 26.4508 19.5294 26.3741L19.382 24.8813Z" fill="black" fill-opacity="0.99"/>
</svg>
